<?xml version="1.0" encoding="UTF-8" standalone="no"?>
<!DOCTYPE svg PUBLIC "-//W3C//DTD SVG 1.1//EN" "http://www.w3.org/Graphics/SVG/1.1/DTD/svg11.dtd">
<svg xmlns="http://www.w3.org/2000/svg" version="1.1" viewBox="113 100 622.12 200.1">
<g stroke-width="2.0" fill="none" stroke-linecap="butt">
<path stroke="#feb499" vector-effect="non-scaling-stroke" d="
  M 370.35 140.32

  C 342.33 122.27 334.25 130.35 334.25 140.32
  C 334.25 150.29 342.33 158.37 352.30 158.37
  C 362.27 158.37 370.35 150.29 370.35 140.32"
/>
<path stroke="#8bb1cd" vector-effect="non-scaling-stroke" d="
  M 642.42 248.91
  Q 639.06 244.82 638.35 239.66
  Q 638.25 238.94 638.25 229.82
  Q 638.25 188.84 638.25 147.86
  Q 638.25 138.03 638.87 135.69
  Q 640.56 129.34 646.71 125.47
  Q 649.39 123.77 652.56 123.75
  Q 652.77 123.75 652.93 123.68
  Q 653.30 123.51 653.15 123.35
  Q 653.06 123.25 652.82 123.25
  Q 627.66 122.81 602.50 122.93
  Q 592.07 122.98 601.73 124.59
  Q 602.33 124.69 602.82 125.00
  Q 612.00 130.84 612.00 142.50
  Q 612.00 189.37 611.93 236.25
  Q 611.92 244.42 606.57 249.96
  Q 604.74 251.85 602.47 252.95
  Q 600.16 254.07 597.60 254.53
  Q 595.95 254.84 597.75 254.80
  Q 625.25 254.23 651.87 254.73
  Q 654.05 254.77 651.93 254.29
  Q 649.13 253.65 646.69 252.38
  Q 644.21 251.09 642.42 248.91"
/>
<path stroke="#8bb1cd" vector-effect="non-scaling-stroke" d="
  M 694.44 187.44
  L 662.19 187.44
  C 661.91 187.44 661.69 187.66 661.70 187.93
  L 661.78 189.95
  C 661.79 190.22 662.02 190.43 662.31 190.43
  L 694.24 190.25
  C 694.52 190.24 694.75 190.47 694.75 190.74
  Q 694.92 213.65 694.57 236.55
  Q 694.49 241.75 693.14 244.72
  Q 689.55 252.63 680.29 254.59
  Q 679.86 254.68 680.31 254.68
  L 735.70 254.68
  Q 736.15 254.68 735.71 254.58
  Q 725.78 252.28 722.54 244.21
  Q 721.00 240.39 721.00 228.60
  Q 721.00 185.18 721.00 141.75
  Q 721.00 131.98 728.61 126.12
  Q 731.44 123.94 735.02 123.76
  Q 735.27 123.75 735.48 123.67
  Q 736.71 123.22 734.81 123.18
  Q 707.65 122.68 680.49 123.24
  C 680.30 123.25 680.14 123.33 680.12 123.45
  Q 680.08 123.64 680.50 123.65
  Q 683.57 123.76 686.16 125.35
  Q 690.90 128.28 693.13 133.02
  Q 694.49 135.89 694.55 141.21
  Q 694.80 164.07 694.94 186.94
  C 694.94 187.22 694.72 187.44 694.44 187.44"
/>
<path stroke="#8bb1cd" vector-effect="non-scaling-stroke" d="
  M 400.56 244.34
  Q 397.49 251.54 389.05 254.29
  Q 388.55 254.45 389.07 254.44
  L 427.81 254.32
  C 428.09 254.32 428.31 254.09 428.31 253.81
  Q 428.03 197.90 428.46 141.99
  Q 428.51 136.26 429.88 133.24
  Q 432.72 126.99 439.73 123.78
  Q 440.89 123.25 439.61 123.25
  L 391.01 123.25
  Q 388.96 123.25 390.88 123.96
  Q 397.75 126.48 400.56 133.16
  Q 401.99 136.58 402.05 143.55
  Q 402.43 186.93 402.23 230.31
  Q 402.18 240.53 400.56 244.34"
/>
<path stroke="#8bb1cd" vector-effect="non-scaling-stroke" d="
  M 531.46 244.21
  Q 528.39 251.30 519.83 254.23
  Q 519.04 254.50 519.88 254.50
  L 572.18 254.44
  Q 572.68 254.44 572.21 254.29
  Q 563.76 251.58 560.71 244.21
  Q 559.25 240.67 559.25 232.59
  Q 559.24 187.17 559.06 141.75
  Q 559.01 128.72 570.95 123.75
  Q 572.17 123.25 570.85 123.25
  L 521.04 123.31
  Q 520.18 123.31 520.99 123.63
  Q 532.71 128.23 532.78 141.25
  Q 533.03 187.10 532.95 232.95
  Q 532.94 240.79 531.46 244.21"
/>
<path stroke="#feb499" vector-effect="non-scaling-stroke" d="
  M 132.94 246.69
  Q 126.03 246.79 119.13 246.95
  Q 116.59 247.01 115.29 248.26
  Q 112.73 250.72 114.69 254.05
  Q 115.83 256.00 118.10 256.00
  Q 182.37 256.01 245.04 256.00
  Q 247.54 256.00 248.76 255.14
  Q 250.68 253.78 250.50 251.25
  Q 250.33 248.80 248.32 247.67
  Q 247.13 247.01 244.56 247.00
  Q 238.12 246.97 231.68 246.82
  C 231.38 246.81 231.10 246.63 230.98 246.35
  Q 229.51 242.96 226.00 232.75
  Q 210.17 186.72 194.27 140.72
  Q 194.24 140.65 192.82 136.26
  Q 190.90 130.36 188.69 127.81
  Q 184.63 123.15 179.68 124.95
  Q 177.09 125.89 175.12 128.54
  Q 173.34 130.93 172.34 133.82
  Q 153.03 190.04 133.60 246.22
  C 133.50 246.50 133.24 246.69 132.94 246.69"
/>
<path stroke="#8bb1cd" vector-effect="non-scaling-stroke" d="
  M 279.94 137.94
  Q 271.71 147.70 272.75 160.00
  Q 273.87 173.26 281.46 181.79
  Q 285.69 186.55 289.75 189.75
  Q 298.01 196.27 308.61 202.86
  Q 323.49 212.11 338.60 220.95
  Q 342.57 223.27 348.50 227.75
  Q 360.07 236.49 352.44 248.94
  Q 351.90 249.81 348.93 252.60
  Q 348.56 252.94 349.01 252.71
  Q 361.06 246.47 368.01 234.78
  Q 371.92 228.19 372.00 221.50
  Q 372.09 213.43 368.53 206.02
  Q 366.21 201.19 361.97 196.71
  Q 357.88 192.37 353.19 189.31
  Q 338.90 180.00 321.63 173.27
  Q 310.33 168.87 299.47 163.50
  Q 290.82 159.21 286.81 154.19
  Q 281.73 147.82 283.73 139.74
  Q 284.62 136.12 286.22 132.76
  Q 286.44 132.30 286.00 132.56
  Q 282.97 134.35 279.94 137.94"
/>
<path stroke="#8bb1cd" vector-effect="non-scaling-stroke" d="
  M 274.07 254.05
  Q 275.93 251.75 279.00 252.01
  Q 282.55 252.31 285.97 253.34
  Q 293.54 255.59 301.43 255.57
  Q 301.93 255.56 301.45 255.45
  Q 289.03 252.37 282.19 241.06
  Q 276.53 231.70 274.06 222.04
  Q 273.93 221.54 273.93 222.05
  L 273.76 253.94
  Q 273.76 254.44 274.07 254.05"
/>
<path stroke="#8bb1cd" vector-effect="non-scaling-stroke" d="
  M 469.49 254.33
  Q 481.89 254.64 495.09 254.49
  C 495.46 254.48 495.75 254.19 495.75 253.82
  L 495.75 227.74
  Q 495.75 225.33 495.16 227.67
  Q 489.58 249.69 466.81 254.34
  Q 466.24 254.46 466.81 254.51
  Q 467.37 254.56 467.92 254.49
  Q 469.08 254.32 469.49 254.33"
/>
<path stroke="#feb499" vector-effect="non-scaling-stroke" d="
  M 171.88 165.05
  Q 182.31 165.60 192.43 164.97
  C 192.69 164.95 192.86 164.71 192.78 164.47
  L 182.84 135.49
  Q 182.17 133.56 181.51 135.48
  L 171.45 164.40
  C 171.34 164.70 171.56 165.03 171.88 165.05"
/>
<path stroke="#feb499" vector-effect="non-scaling-stroke" d="
  M 195.56 174.43
  L 168.80 174.26
  C 168.38 174.26 168.00 174.53 167.86 174.94
  L 157.35 205.46
  C 157.26 205.72 157.45 206.00 157.73 206.00
  L 206.02 206.00
  C 206.50 206.00 206.84 205.54 206.69 205.09
  L 196.24 174.90
  C 196.14 174.62 195.87 174.43 195.56 174.43"
/>
<path stroke="#feb499" vector-effect="non-scaling-stroke" d="
  M 219.58 246.74
  C 220.32 246.74 220.85 246.02 220.61 245.32
  L 210.51 215.81
  C 210.40 215.48 210.08 215.25 209.72 215.25
  L 154.43 215.25
  C 154.12 215.25 153.85 215.44 153.75 215.73
  L 143.32 246.04
  C 143.19 246.42 143.47 246.81 143.87 246.81
  L 219.58 246.74"
/>
</g>

<circle fill="#ff6b35" cx="352.30" cy="140.32" r="18.05"/>
<path fill="#1a659e" d="
  M 646.69 252.38
  Q 649.13 253.65 651.93 254.29
  Q 654.05 254.77 651.87 254.73
  Q 625.25 254.23 597.75 254.80
  Q 595.95 254.84 597.60 254.53
  Q 600.16 254.07 602.47 252.95
  Q 604.74 251.85 606.57 249.96
  Q 611.92 244.42 611.93 236.25
  Q 612.00 189.37 612.00 142.50
  Q 612.00 130.84 602.82 125.00
  Q 602.33 124.69 601.73 124.59
  Q 592.07 122.98 602.50 122.93
  Q 627.66 122.81 652.82 123.25
  Q 653.06 123.25 653.15 123.35
  Q 653.30 123.51 652.93 123.68
  Q 652.77 123.75 652.56 123.75
  Q 649.39 123.77 646.71 125.47
  Q 640.56 129.34 638.87 135.69
  Q 638.25 138.03 638.25 147.86
  Q 638.25 188.84 638.25 229.82
  Q 638.25 238.94 638.35 239.66
  Q 639.06 244.82 642.42 248.91
  Q 644.21 251.09 646.69 252.38
  Z"
/>
<path fill="#1a659e" d="
  M 694.94 186.94
  Q 694.80 164.07 694.55 141.21
  Q 694.49 135.89 693.13 133.02
  Q 690.90 128.28 686.16 125.35
  Q 683.57 123.76 680.50 123.65
  Q 680.08 123.64 680.12 123.45
  C 680.14 123.33 680.30 123.25 680.49 123.24
  Q 707.65 122.68 734.81 123.18
  Q 736.71 123.22 735.48 123.67
  Q 735.27 123.75 735.02 123.76
  Q 731.44 123.94 728.61 126.12
  Q 721.00 131.98 721.00 141.75
  Q 721.00 185.18 721.00 228.60
  Q 721.00 240.39 722.54 244.21
  Q 725.78 252.28 735.71 254.58
  Q 736.15 254.68 735.70 254.68
  L 680.31 254.68
  Q 679.86 254.68 680.29 254.59
  Q 689.55 252.63 693.14 244.72
  Q 694.49 241.75 694.57 236.55
  Q 694.92 213.65 694.75 190.74
  C 694.75 190.47 694.52 190.24 694.24 190.25
  L 662.31 190.43
  C 662.02 190.43 661.79 190.22 661.78 189.95
  L 661.70 187.93
  C 661.69 187.66 661.91 187.44 662.19 187.44
  L 694.44 187.44
  C 694.72 187.44 694.94 187.22 694.94 186.94
  Z"
/>
<path fill="#1a659e" d="
  M 402.23 230.31
  Q 402.43 186.93 402.05 143.55
  Q 401.99 136.58 400.56 133.16
  Q 397.75 126.48 390.88 123.96
  Q 388.96 123.25 391.01 123.25
  L 439.61 123.25
  Q 440.89 123.25 439.73 123.78
  Q 432.72 126.99 429.88 133.24
  Q 428.51 136.26 428.46 141.99
  Q 428.03 197.90 428.31 253.81
  C 428.31 254.09 428.09 254.32 427.81 254.32
  L 389.07 254.44
  Q 388.55 254.45 389.05 254.29
  Q 397.49 251.54 400.56 244.34
  Q 402.18 240.53 402.23 230.31
  Z"
/>
<path fill="#1a659e" d="
  M 532.95 232.95
  Q 533.03 187.10 532.78 141.25
  Q 532.71 128.23 520.99 123.63
  Q 520.18 123.31 521.04 123.31
  L 570.85 123.25
  Q 572.17 123.25 570.95 123.75
  Q 559.01 128.72 559.06 141.75
  Q 559.24 187.17 559.25 232.59
  Q 559.25 240.67 560.71 244.21
  Q 563.76 251.58 572.21 254.29
  Q 572.68 254.44 572.18 254.44
  L 519.88 254.50
  Q 519.04 254.50 519.83 254.23
  Q 528.39 251.30 531.46 244.21
  Q 532.94 240.79 532.95 232.95
  Z"
/>
<path fill="#ff6b35" d="
  M 133.60 246.22
  Q 153.03 190.04 172.34 133.82
  Q 173.34 130.93 175.12 128.54
  Q 177.09 125.89 179.68 124.95
  Q 184.63 123.15 188.69 127.81
  Q 190.90 130.36 192.82 136.26
  Q 194.24 140.65 194.27 140.72
  Q 210.17 186.72 226.00 232.75
  Q 229.51 242.96 230.98 246.35
  C 231.10 246.63 231.38 246.81 231.68 246.82
  Q 238.12 246.97 244.56 247.00
  Q 247.13 247.01 248.32 247.67
  Q 250.33 248.80 250.50 251.25
  Q 250.68 253.78 248.76 255.14
  Q 247.54 256.00 245.04 256.00
  Q 182.37 256.01 118.10 256.00
  Q 115.83 256.00 114.69 254.05
  Q 112.73 250.72 115.29 248.26
  Q 116.59 247.01 119.13 246.95
  Q 126.03 246.79 132.94 246.69
  C 133.24 246.69 133.50 246.50 133.60 246.22
  Z
  M 171.88 165.05
  Q 182.31 165.60 192.43 164.97
  C 192.69 164.95 192.86 164.71 192.78 164.47
  L 182.84 135.49
  Q 182.17 133.56 181.51 135.48
  L 171.45 164.40
  C 171.34 164.70 171.56 165.03 171.88 165.05
  Z
  M 195.56 174.43
  L 168.80 174.26
  C 168.38 174.26 168.00 174.53 167.86 174.94
  L 157.35 205.46
  C 157.26 205.72 157.45 206.00 157.73 206.00
  L 206.02 206.00
  C 206.50 206.00 206.84 205.54 206.69 205.09
  L 196.24 174.90
  C 196.14 174.62 195.87 174.43 195.56 174.43
  Z
  M 219.58 246.74
  C 220.32 246.74 220.85 246.02 220.61 245.32
  L 210.51 215.81
  C 210.40 215.48 210.08 215.25 209.72 215.25
  L 154.43 215.25
  C 154.12 215.25 153.85 215.44 153.75 215.73
  L 143.32 246.04
  C 143.19 246.42 143.47 246.81 143.87 246.81
  L 219.58 246.74
  Z"
/>
<path fill="#1a659e" d="
  M 279.94 137.94
  Q 282.97 134.35 286.00 132.56
  Q 286.44 132.30 286.22 132.76
  Q 284.62 136.12 283.73 139.74
  Q 281.73 147.82 286.81 154.19
  Q 290.82 159.21 299.47 163.50
  Q 310.33 168.87 321.63 173.27
  Q 338.90 180.00 353.19 189.31
  Q 357.88 192.37 361.97 196.71
  Q 366.21 201.19 368.53 206.02
  Q 372.09 213.43 372.00 221.50
  Q 371.92 228.19 368.01 234.78
  Q 361.06 246.47 349.01 252.71
  Q 348.56 252.94 348.93 252.60
  Q 351.90 249.81 352.44 248.94
  Q 360.07 236.49 348.50 227.75
  Q 342.57 223.27 338.60 220.95
  Q 323.49 212.11 308.61 202.86
  Q 298.01 196.27 289.75 189.75
  Q 285.69 186.55 281.46 181.79
  Q 273.87 173.26 272.75 160.00
  Q 271.71 147.70 279.94 137.94
  Z"
/>
<path fill="#fcfcfc" d="
  M 171.88 165.05
  C 171.56 165.03 171.34 164.70 171.45 164.40
  L 181.51 135.48
  Q 182.17 133.56 182.84 135.49
  L 192.78 164.47
  C 192.86 164.71 192.69 164.95 192.43 164.97
  Q 182.31 165.60 171.88 165.05
  Z"
/>
<path fill="#fcfcfc" d="
  M 196.24 174.90
  L 206.69 205.09
  C 206.84 205.54 206.50 206.00 206.02 206.00
  L 157.73 206.00
  C 157.45 206.00 157.26 205.72 157.35 205.46
  L 167.86 174.94
  C 168.00 174.53 168.38 174.26 168.80 174.26
  L 195.56 174.43
  C 195.87 174.43 196.14 174.62 196.24 174.90
  Z"
/>
<path fill="#fcfcfc" d="
  M 219.58 246.74
  L 143.87 246.81
  C 143.47 246.81 143.19 246.42 143.32 246.04
  L 153.75 215.73
  C 153.85 215.44 154.12 215.25 154.43 215.25
  L 209.72 215.25
  C 210.08 215.25 210.40 215.48 210.51 215.81
  L 220.61 245.32
  C 220.85 246.02 220.32 246.74 219.58 246.74
  Z"
/>
<path fill="#1a659e" d="
  M 274.07 254.05
  Q 273.76 254.44 273.76 253.94
  L 273.93 222.05
  Q 273.93 221.54 274.06 222.04
  Q 276.53 231.70 282.19 241.06
  Q 289.03 252.37 301.45 255.45
  Q 301.93 255.56 301.43 255.57
  Q 293.54 255.59 285.97 253.34
  Q 282.55 252.31 279.00 252.01
  Q 275.93 251.75 274.07 254.05
  Z"
/>
<path fill="#1a659e" d="
  M 467.92 254.49
  Q 467.37 254.56 466.81 254.51
  Q 466.24 254.46 466.81 254.34
  Q 489.58 249.69 495.16 227.67
  Q 495.75 225.33 495.75 227.74
  L 495.75 253.82
  C 495.75 254.19 495.46 254.48 495.09 254.49
  Q 481.89 254.64 469.49 254.33
  Q 469.08 254.32 467.92 254.49
  Z"
/>
</svg>
